<mxfile host="app.diagrams.net" modified="2020-08-12T16:57:09.721Z" agent="5.0 (Macintosh; Intel Mac OS X 10_15_4) AppleWebKit/537.36 (KHTML, like Gecko) Chrome/84.0.4147.89 Safari/537.36" etag="IhmHkYPkYSGAFhvWxtnz" version="13.6.2" type="github" pages="4">
  <diagram id="XbmCLFcZmLmQ6wtDQV7Q" name="Message Events">
    <mxGraphModel dx="1197" dy="743" grid="1" gridSize="10" guides="1" tooltips="1" connect="1" arrows="1" fold="1" page="1" pageScale="1" pageWidth="1654" pageHeight="1169" math="0" shadow="0">
      <root>
        <mxCell id="0" />
        <mxCell id="1" parent="0" />
        <mxCell id="ctm2aWtkiGQc1RIFXN-8-1" value="Start" style="shape=mxgraph.bpmn.shape;html=1;verticalLabelPosition=bottom;labelBackgroundColor=#ffffff;verticalAlign=top;align=center;perimeter=ellipsePerimeter;outlineConnect=0;outline=standard;symbol=general;" vertex="1" parent="1">
          <mxGeometry x="40" y="40" width="50" height="50" as="geometry" />
        </mxCell>
        <mxCell id="ctm2aWtkiGQc1RIFXN-8-2" value="Intermediate" style="shape=mxgraph.bpmn.shape;html=1;verticalLabelPosition=bottom;labelBackgroundColor=#ffffff;verticalAlign=top;align=center;perimeter=ellipsePerimeter;outlineConnect=0;outline=throwing;symbol=general;" vertex="1" parent="1">
          <mxGeometry x="160" y="40" width="50" height="50" as="geometry" />
        </mxCell>
        <mxCell id="ctm2aWtkiGQc1RIFXN-8-3" value="End" style="shape=mxgraph.bpmn.shape;html=1;verticalLabelPosition=bottom;labelBackgroundColor=#ffffff;verticalAlign=top;align=center;perimeter=ellipsePerimeter;outlineConnect=0;outline=end;symbol=general;" vertex="1" parent="1">
          <mxGeometry x="280" y="40" width="50" height="50" as="geometry" />
        </mxCell>
        <mxCell id="ctm2aWtkiGQc1RIFXN-8-4" value="Start" style="shape=mxgraph.bpmn.shape;html=1;verticalLabelPosition=bottom;labelBackgroundColor=#ffffff;verticalAlign=top;align=center;perimeter=ellipsePerimeter;outlineConnect=0;outline=standard;symbol=message;" vertex="1" parent="1">
          <mxGeometry x="40" y="180" width="50" height="50" as="geometry" />
        </mxCell>
        <mxCell id="ctm2aWtkiGQc1RIFXN-8-5" value="Castching" style="shape=mxgraph.bpmn.shape;html=1;verticalLabelPosition=bottom;labelBackgroundColor=#ffffff;verticalAlign=top;align=center;perimeter=ellipsePerimeter;outlineConnect=0;outline=catching;symbol=message;" vertex="1" parent="1">
          <mxGeometry x="120" y="180" width="50" height="50" as="geometry" />
        </mxCell>
        <mxCell id="ctm2aWtkiGQc1RIFXN-8-6" value="Throwing" style="shape=mxgraph.bpmn.shape;html=1;verticalLabelPosition=bottom;labelBackgroundColor=#ffffff;verticalAlign=top;align=center;perimeter=ellipsePerimeter;outlineConnect=0;outline=throwing;symbol=message;" vertex="1" parent="1">
          <mxGeometry x="210" y="180" width="50" height="50" as="geometry" />
        </mxCell>
        <mxCell id="ctm2aWtkiGQc1RIFXN-8-7" value="End" style="shape=mxgraph.bpmn.shape;html=1;verticalLabelPosition=bottom;labelBackgroundColor=#ffffff;verticalAlign=top;align=center;perimeter=ellipsePerimeter;outlineConnect=0;outline=end;symbol=message;" vertex="1" parent="1">
          <mxGeometry x="300" y="180" width="50" height="50" as="geometry" />
        </mxCell>
        <mxCell id="ctm2aWtkiGQc1RIFXN-8-8" value="" style="rounded=1;arcSize=10;dashed=1;strokeColor=#000000;fillColor=none;gradientColor=none;dashPattern=8 3 1 3;strokeWidth=2;" vertex="1" parent="1">
          <mxGeometry x="100" y="170" width="190" height="90" as="geometry" />
        </mxCell>
        <mxCell id="ctm2aWtkiGQc1RIFXN-8-9" value="Intermediate&lt;br style=&quot;padding: 0px ; margin: 0px&quot;&gt;Received by catching&lt;br style=&quot;padding: 0px ; margin: 0px&quot;&gt;Sent by throwing" style="text;html=1;align=center;verticalAlign=middle;resizable=0;points=[];autosize=1;" vertex="1" parent="1">
          <mxGeometry x="140" y="270" width="130" height="50" as="geometry" />
        </mxCell>
        <mxCell id="ctm2aWtkiGQc1RIFXN-8-13" value="" style="edgeStyle=orthogonalEdgeStyle;rounded=0;orthogonalLoop=1;jettySize=auto;html=1;" edge="1" parent="1" source="ctm2aWtkiGQc1RIFXN-8-10" target="ctm2aWtkiGQc1RIFXN-8-11">
          <mxGeometry relative="1" as="geometry" />
        </mxCell>
        <mxCell id="ctm2aWtkiGQc1RIFXN-8-10" value="Task" style="shape=ext;rounded=1;html=1;whiteSpace=wrap;" vertex="1" parent="1">
          <mxGeometry x="20" y="400" width="120" height="80" as="geometry" />
        </mxCell>
        <mxCell id="ctm2aWtkiGQc1RIFXN-8-14" value="" style="edgeStyle=orthogonalEdgeStyle;rounded=0;orthogonalLoop=1;jettySize=auto;html=1;" edge="1" parent="1" source="ctm2aWtkiGQc1RIFXN-8-11" target="ctm2aWtkiGQc1RIFXN-8-12">
          <mxGeometry relative="1" as="geometry" />
        </mxCell>
        <mxCell id="ctm2aWtkiGQc1RIFXN-8-39" value="" style="edgeStyle=orthogonalEdgeStyle;rounded=0;orthogonalLoop=1;jettySize=auto;html=1;" edge="1" parent="1" source="ctm2aWtkiGQc1RIFXN-8-11" target="ctm2aWtkiGQc1RIFXN-8-25">
          <mxGeometry relative="1" as="geometry" />
        </mxCell>
        <mxCell id="ctm2aWtkiGQc1RIFXN-8-11" value="Invoice received" style="shape=mxgraph.bpmn.shape;html=1;verticalLabelPosition=bottom;labelBackgroundColor=#ffffff;verticalAlign=top;align=center;perimeter=ellipsePerimeter;outlineConnect=0;outline=standard;symbol=message;" vertex="1" parent="1">
          <mxGeometry x="200" y="415" width="50" height="50" as="geometry" />
        </mxCell>
        <mxCell id="ctm2aWtkiGQc1RIFXN-8-12" value="Task" style="shape=ext;rounded=1;html=1;whiteSpace=wrap;" vertex="1" parent="1">
          <mxGeometry x="310" y="400" width="120" height="80" as="geometry" />
        </mxCell>
        <mxCell id="ctm2aWtkiGQc1RIFXN-8-15" value="" style="startArrow=oval;startFill=0;startSize=7;endArrow=block;endFill=0;endSize=10;dashed=1;html=1;" edge="1" parent="1" target="ctm2aWtkiGQc1RIFXN-8-11">
          <mxGeometry width="100" relative="1" as="geometry">
            <mxPoint x="223" y="360" as="sourcePoint" />
            <mxPoint x="310" y="360" as="targetPoint" />
          </mxGeometry>
        </mxCell>
        <mxCell id="ctm2aWtkiGQc1RIFXN-8-16" value="" style="shape=image;html=1;verticalAlign=top;verticalLabelPosition=bottom;labelBackgroundColor=#ffffff;imageAspect=0;aspect=fixed;image=https://cdn2.iconfinder.com/data/icons/picol-vector/32/equal-128.png" vertex="1" parent="1">
          <mxGeometry x="460" y="411" width="54" height="54" as="geometry" />
        </mxCell>
        <mxCell id="ctm2aWtkiGQc1RIFXN-8-20" value="" style="edgeStyle=orthogonalEdgeStyle;rounded=0;orthogonalLoop=1;jettySize=auto;html=1;" edge="1" parent="1" source="ctm2aWtkiGQc1RIFXN-8-17" target="ctm2aWtkiGQc1RIFXN-8-18">
          <mxGeometry relative="1" as="geometry" />
        </mxCell>
        <mxCell id="ctm2aWtkiGQc1RIFXN-8-17" value="Task" style="shape=ext;rounded=1;html=1;whiteSpace=wrap;" vertex="1" parent="1">
          <mxGeometry x="550" y="390" width="120" height="80" as="geometry" />
        </mxCell>
        <mxCell id="ctm2aWtkiGQc1RIFXN-8-21" value="" style="edgeStyle=orthogonalEdgeStyle;rounded=0;orthogonalLoop=1;jettySize=auto;html=1;" edge="1" parent="1" source="ctm2aWtkiGQc1RIFXN-8-18" target="ctm2aWtkiGQc1RIFXN-8-19">
          <mxGeometry relative="1" as="geometry" />
        </mxCell>
        <mxCell id="ctm2aWtkiGQc1RIFXN-8-18" value="Receive Invoice" style="shape=ext;rounded=1;html=1;whiteSpace=wrap;" vertex="1" parent="1">
          <mxGeometry x="720" y="390" width="120" height="80" as="geometry" />
        </mxCell>
        <mxCell id="ctm2aWtkiGQc1RIFXN-8-19" value="Task" style="shape=ext;rounded=1;html=1;whiteSpace=wrap;" vertex="1" parent="1">
          <mxGeometry x="880" y="390" width="120" height="80" as="geometry" />
        </mxCell>
        <mxCell id="ctm2aWtkiGQc1RIFXN-8-22" value="" style="startArrow=oval;startFill=0;startSize=7;endArrow=block;endFill=0;endSize=10;dashed=1;html=1;" edge="1" parent="1">
          <mxGeometry width="100" relative="1" as="geometry">
            <mxPoint x="779.31" y="330" as="sourcePoint" />
            <mxPoint x="780.6851952210086" y="385.0078088403425" as="targetPoint" />
          </mxGeometry>
        </mxCell>
        <mxCell id="ctm2aWtkiGQc1RIFXN-8-26" value="" style="edgeStyle=orthogonalEdgeStyle;rounded=0;orthogonalLoop=1;jettySize=auto;html=1;" edge="1" parent="1" source="ctm2aWtkiGQc1RIFXN-8-23" target="ctm2aWtkiGQc1RIFXN-8-25">
          <mxGeometry relative="1" as="geometry" />
        </mxCell>
        <mxCell id="ctm2aWtkiGQc1RIFXN-8-23" value="Task" style="shape=ext;rounded=1;html=1;whiteSpace=wrap;" vertex="1" parent="1">
          <mxGeometry x="30" y="544" width="120" height="80" as="geometry" />
        </mxCell>
        <mxCell id="ctm2aWtkiGQc1RIFXN-8-24" value="Task" style="shape=ext;rounded=1;html=1;whiteSpace=wrap;" vertex="1" parent="1">
          <mxGeometry x="320" y="540" width="120" height="80" as="geometry" />
        </mxCell>
        <mxCell id="ctm2aWtkiGQc1RIFXN-8-27" value="" style="edgeStyle=orthogonalEdgeStyle;rounded=0;orthogonalLoop=1;jettySize=auto;html=1;" edge="1" parent="1" source="ctm2aWtkiGQc1RIFXN-8-25" target="ctm2aWtkiGQc1RIFXN-8-24">
          <mxGeometry relative="1" as="geometry" />
        </mxCell>
        <mxCell id="ctm2aWtkiGQc1RIFXN-8-25" value="Invoice Sent" style="shape=mxgraph.bpmn.shape;html=1;verticalLabelPosition=bottom;labelBackgroundColor=#ffffff;verticalAlign=top;align=center;perimeter=ellipsePerimeter;outlineConnect=0;outline=end;symbol=message;" vertex="1" parent="1">
          <mxGeometry x="210" y="555" width="50" height="50" as="geometry" />
        </mxCell>
        <mxCell id="ctm2aWtkiGQc1RIFXN-8-28" value="" style="startArrow=oval;startFill=0;startSize=7;endArrow=block;endFill=0;endSize=10;dashed=1;html=1;" edge="1" parent="1">
          <mxGeometry width="100" relative="1" as="geometry">
            <mxPoint x="234.92" y="555" as="sourcePoint" />
            <mxPoint x="234.92" y="495" as="targetPoint" />
          </mxGeometry>
        </mxCell>
        <mxCell id="ctm2aWtkiGQc1RIFXN-8-30" value="" style="shape=image;html=1;verticalAlign=top;verticalLabelPosition=bottom;labelBackgroundColor=#ffffff;imageAspect=0;aspect=fixed;image=https://cdn2.iconfinder.com/data/icons/picol-vector/32/equal-128.png" vertex="1" parent="1">
          <mxGeometry x="460" y="551" width="54" height="54" as="geometry" />
        </mxCell>
        <mxCell id="ctm2aWtkiGQc1RIFXN-8-41" value="" style="edgeStyle=orthogonalEdgeStyle;rounded=0;orthogonalLoop=1;jettySize=auto;html=1;" edge="1" parent="1" source="ctm2aWtkiGQc1RIFXN-8-31" target="ctm2aWtkiGQc1RIFXN-8-32">
          <mxGeometry relative="1" as="geometry" />
        </mxCell>
        <mxCell id="ctm2aWtkiGQc1RIFXN-8-31" value="Task" style="shape=ext;rounded=1;html=1;whiteSpace=wrap;" vertex="1" parent="1">
          <mxGeometry x="550" y="538" width="120" height="80" as="geometry" />
        </mxCell>
        <mxCell id="ctm2aWtkiGQc1RIFXN-8-42" value="" style="edgeStyle=orthogonalEdgeStyle;rounded=0;orthogonalLoop=1;jettySize=auto;html=1;" edge="1" parent="1" source="ctm2aWtkiGQc1RIFXN-8-32" target="ctm2aWtkiGQc1RIFXN-8-33">
          <mxGeometry relative="1" as="geometry" />
        </mxCell>
        <mxCell id="ctm2aWtkiGQc1RIFXN-8-32" value="Send Invoice" style="shape=ext;rounded=1;html=1;whiteSpace=wrap;" vertex="1" parent="1">
          <mxGeometry x="720" y="538" width="120" height="80" as="geometry" />
        </mxCell>
        <mxCell id="ctm2aWtkiGQc1RIFXN-8-33" value="Task" style="shape=ext;rounded=1;html=1;whiteSpace=wrap;" vertex="1" parent="1">
          <mxGeometry x="880" y="538" width="120" height="80" as="geometry" />
        </mxCell>
        <mxCell id="ctm2aWtkiGQc1RIFXN-8-34" value="" style="startArrow=oval;startFill=0;startSize=7;endArrow=block;endFill=0;endSize=10;dashed=1;html=1;" edge="1" parent="1">
          <mxGeometry width="100" relative="1" as="geometry">
            <mxPoint x="770" y="540" as="sourcePoint" />
            <mxPoint x="770" y="490" as="targetPoint" />
          </mxGeometry>
        </mxCell>
        <mxCell id="ctm2aWtkiGQc1RIFXN-8-38" value="" style="edgeStyle=orthogonalEdgeStyle;rounded=0;orthogonalLoop=1;jettySize=auto;html=1;" edge="1" parent="1" source="ctm2aWtkiGQc1RIFXN-8-35" target="ctm2aWtkiGQc1RIFXN-8-36">
          <mxGeometry relative="1" as="geometry" />
        </mxCell>
        <mxCell id="ctm2aWtkiGQc1RIFXN-8-35" value="Task" style="shape=ext;rounded=1;html=1;whiteSpace=wrap;" vertex="1" parent="1">
          <mxGeometry x="220" y="705" width="120" height="80" as="geometry" />
        </mxCell>
        <mxCell id="ctm2aWtkiGQc1RIFXN-8-36" value="Invoice Sent" style="shape=mxgraph.bpmn.shape;html=1;verticalLabelPosition=bottom;labelBackgroundColor=#ffffff;verticalAlign=top;align=center;perimeter=ellipsePerimeter;outlineConnect=0;outline=end;symbol=message;" vertex="1" parent="1">
          <mxGeometry x="400" y="720" width="50" height="50" as="geometry" />
        </mxCell>
        <mxCell id="ctm2aWtkiGQc1RIFXN-8-37" value="" style="startArrow=oval;startFill=0;startSize=7;endArrow=block;endFill=0;endSize=10;dashed=1;html=1;" edge="1" parent="1">
          <mxGeometry width="100" relative="1" as="geometry">
            <mxPoint x="424.91999999999996" y="720" as="sourcePoint" />
            <mxPoint x="424.91999999999996" y="660" as="targetPoint" />
          </mxGeometry>
        </mxCell>
        <mxCell id="ctm2aWtkiGQc1RIFXN-8-40" value="" style="shape=image;html=1;verticalAlign=top;verticalLabelPosition=bottom;labelBackgroundColor=#ffffff;imageAspect=0;aspect=fixed;image=https://cdn2.iconfinder.com/data/icons/picol-vector/32/equal-128.png" vertex="1" parent="1">
          <mxGeometry x="470" y="705" width="54" height="54" as="geometry" />
        </mxCell>
        <mxCell id="ctm2aWtkiGQc1RIFXN-8-46" value="" style="edgeStyle=orthogonalEdgeStyle;rounded=0;orthogonalLoop=1;jettySize=auto;html=1;" edge="1" parent="1" source="ctm2aWtkiGQc1RIFXN-8-43" target="ctm2aWtkiGQc1RIFXN-8-44">
          <mxGeometry relative="1" as="geometry" />
        </mxCell>
        <mxCell id="ctm2aWtkiGQc1RIFXN-8-43" value="Task" style="shape=ext;rounded=1;html=1;whiteSpace=wrap;" vertex="1" parent="1">
          <mxGeometry x="560" y="698" width="120" height="80" as="geometry" />
        </mxCell>
        <mxCell id="ctm2aWtkiGQc1RIFXN-8-48" value="" style="edgeStyle=orthogonalEdgeStyle;rounded=0;orthogonalLoop=1;jettySize=auto;html=1;" edge="1" parent="1" source="ctm2aWtkiGQc1RIFXN-8-44" target="ctm2aWtkiGQc1RIFXN-8-47">
          <mxGeometry relative="1" as="geometry" />
        </mxCell>
        <mxCell id="ctm2aWtkiGQc1RIFXN-8-44" value="Send Invoice" style="shape=ext;rounded=1;html=1;whiteSpace=wrap;" vertex="1" parent="1">
          <mxGeometry x="730" y="698" width="120" height="80" as="geometry" />
        </mxCell>
        <mxCell id="ctm2aWtkiGQc1RIFXN-8-45" value="" style="startArrow=oval;startFill=0;startSize=7;endArrow=block;endFill=0;endSize=10;dashed=1;html=1;" edge="1" parent="1">
          <mxGeometry width="100" relative="1" as="geometry">
            <mxPoint x="780" y="700" as="sourcePoint" />
            <mxPoint x="780" y="650" as="targetPoint" />
          </mxGeometry>
        </mxCell>
        <mxCell id="ctm2aWtkiGQc1RIFXN-8-47" value="" style="shape=mxgraph.bpmn.shape;html=1;verticalLabelPosition=bottom;labelBackgroundColor=#ffffff;verticalAlign=top;align=center;perimeter=ellipsePerimeter;outlineConnect=0;outline=end;symbol=general;" vertex="1" parent="1">
          <mxGeometry x="890" y="709" width="50" height="50" as="geometry" />
        </mxCell>
        <mxCell id="ctm2aWtkiGQc1RIFXN-8-53" value="" style="edgeStyle=orthogonalEdgeStyle;rounded=0;orthogonalLoop=1;jettySize=auto;html=1;" edge="1" parent="1" source="ctm2aWtkiGQc1RIFXN-8-49" target="ctm2aWtkiGQc1RIFXN-8-50">
          <mxGeometry relative="1" as="geometry" />
        </mxCell>
        <mxCell id="ctm2aWtkiGQc1RIFXN-8-49" value="Invoice received" style="shape=mxgraph.bpmn.shape;html=1;verticalLabelPosition=bottom;labelBackgroundColor=#ffffff;verticalAlign=top;align=center;perimeter=ellipsePerimeter;outlineConnect=0;outline=standard;symbol=message;" vertex="1" parent="1">
          <mxGeometry x="250" y="875" width="50" height="50" as="geometry" />
        </mxCell>
        <mxCell id="ctm2aWtkiGQc1RIFXN-8-50" value="Task" style="shape=ext;rounded=1;html=1;whiteSpace=wrap;" vertex="1" parent="1">
          <mxGeometry x="360" y="860" width="120" height="80" as="geometry" />
        </mxCell>
        <mxCell id="ctm2aWtkiGQc1RIFXN-8-51" value="" style="startArrow=oval;startFill=0;startSize=7;endArrow=block;endFill=0;endSize=10;dashed=1;html=1;" edge="1" parent="1" target="ctm2aWtkiGQc1RIFXN-8-49">
          <mxGeometry width="100" relative="1" as="geometry">
            <mxPoint x="273" y="820" as="sourcePoint" />
            <mxPoint x="360" y="820" as="targetPoint" />
          </mxGeometry>
        </mxCell>
        <mxCell id="ctm2aWtkiGQc1RIFXN-8-52" value="" style="shape=image;html=1;verticalAlign=top;verticalLabelPosition=bottom;labelBackgroundColor=#ffffff;imageAspect=0;aspect=fixed;image=https://cdn3.iconfinder.com/data/icons/security-flat-2-1/512/no__not__stop__wrong-128.png" vertex="1" parent="1">
          <mxGeometry x="506" y="871" width="54" height="54" as="geometry" />
        </mxCell>
        <mxCell id="ctm2aWtkiGQc1RIFXN-8-59" value="" style="edgeStyle=orthogonalEdgeStyle;rounded=0;orthogonalLoop=1;jettySize=auto;html=1;" edge="1" parent="1" source="ctm2aWtkiGQc1RIFXN-8-54" target="ctm2aWtkiGQc1RIFXN-8-55">
          <mxGeometry relative="1" as="geometry" />
        </mxCell>
        <mxCell id="ctm2aWtkiGQc1RIFXN-8-54" value="" style="shape=mxgraph.bpmn.shape;html=1;verticalLabelPosition=bottom;labelBackgroundColor=#ffffff;verticalAlign=top;align=center;perimeter=ellipsePerimeter;outlineConnect=0;outline=standard;symbol=general;" vertex="1" parent="1">
          <mxGeometry x="600" y="871" width="50" height="50" as="geometry" />
        </mxCell>
        <mxCell id="ctm2aWtkiGQc1RIFXN-8-60" value="" style="edgeStyle=orthogonalEdgeStyle;rounded=0;orthogonalLoop=1;jettySize=auto;html=1;" edge="1" parent="1" source="ctm2aWtkiGQc1RIFXN-8-55" target="ctm2aWtkiGQc1RIFXN-8-56">
          <mxGeometry relative="1" as="geometry" />
        </mxCell>
        <mxCell id="ctm2aWtkiGQc1RIFXN-8-55" value="Receive Invoice" style="shape=ext;rounded=1;html=1;whiteSpace=wrap;" vertex="1" parent="1">
          <mxGeometry x="700" y="858" width="120" height="80" as="geometry" />
        </mxCell>
        <mxCell id="ctm2aWtkiGQc1RIFXN-8-56" value="Task" style="shape=ext;rounded=1;html=1;whiteSpace=wrap;" vertex="1" parent="1">
          <mxGeometry x="870" y="858" width="120" height="80" as="geometry" />
        </mxCell>
        <mxCell id="ctm2aWtkiGQc1RIFXN-8-57" value="" style="startArrow=oval;startFill=0;startSize=7;endArrow=block;endFill=0;endSize=10;dashed=1;html=1;" edge="1" parent="1">
          <mxGeometry width="100" relative="1" as="geometry">
            <mxPoint x="739.31" y="800" as="sourcePoint" />
            <mxPoint x="740.6851952210086" y="855.0078088403425" as="targetPoint" />
          </mxGeometry>
        </mxCell>
        <mxCell id="ctm2aWtkiGQc1RIFXN-8-61" value="Receive Msg in other pool" style="text;html=1;align=center;verticalAlign=middle;resizable=0;points=[];autosize=1;fillColor=#ffe6cc;strokeColor=#d79b00;fontSize=17;" vertex="1" parent="1">
          <mxGeometry x="220" y="965" width="210" height="30" as="geometry" />
        </mxCell>
        <mxCell id="ctm2aWtkiGQc1RIFXN-8-62" value="Process start and wait for the invoice" style="text;html=1;align=center;verticalAlign=middle;resizable=0;points=[];autosize=1;fontSize=17;fillColor=#ffe6cc;strokeColor=#d79b00;" vertex="1" parent="1">
          <mxGeometry x="615" y="965" width="290" height="30" as="geometry" />
        </mxCell>
      </root>
    </mxGraphModel>
  </diagram>
  <diagram id="11uwSYMP7IWZJ2fWoJQ_" name="Time Events">
    <mxGraphModel dx="2211" dy="743" grid="1" gridSize="10" guides="1" tooltips="1" connect="1" arrows="1" fold="1" page="1" pageScale="1" pageWidth="1654" pageHeight="1169" math="0" shadow="0">
      <root>
        <mxCell id="mxgCRNIYhX8iZWbbocOg-0" />
        <mxCell id="mxgCRNIYhX8iZWbbocOg-1" parent="mxgCRNIYhX8iZWbbocOg-0" />
        <mxCell id="mxgCRNIYhX8iZWbbocOg-2" value="Start" style="shape=mxgraph.bpmn.shape;html=1;verticalLabelPosition=bottom;labelBackgroundColor=#ffffff;verticalAlign=top;align=center;perimeter=ellipsePerimeter;outlineConnect=0;outline=standard;symbol=timer;fontSize=17;" vertex="1" parent="mxgCRNIYhX8iZWbbocOg-1">
          <mxGeometry x="80" y="120" width="50" height="50" as="geometry" />
        </mxCell>
        <mxCell id="mxgCRNIYhX8iZWbbocOg-4" value="Intermediate" style="shape=mxgraph.bpmn.shape;html=1;verticalLabelPosition=bottom;labelBackgroundColor=#ffffff;verticalAlign=top;align=center;perimeter=ellipsePerimeter;outlineConnect=0;outline=catching;symbol=timer;fontSize=17;" vertex="1" parent="mxgCRNIYhX8iZWbbocOg-1">
          <mxGeometry x="190" y="120" width="50" height="50" as="geometry" />
        </mxCell>
        <mxCell id="mxgCRNIYhX8iZWbbocOg-5" value="6:00pm every Friday" style="text;html=1;align=center;verticalAlign=middle;resizable=0;points=[];autosize=1;fontSize=17;" vertex="1" parent="mxgCRNIYhX8iZWbbocOg-1">
          <mxGeometry x="15" y="205" width="170" height="30" as="geometry" />
        </mxCell>
        <mxCell id="mxgCRNIYhX8iZWbbocOg-6" value="Wait three working day (catching)" style="text;html=1;align=center;verticalAlign=middle;resizable=0;points=[];autosize=1;fontSize=17;" vertex="1" parent="mxgCRNIYhX8iZWbbocOg-1">
          <mxGeometry x="200" y="190" width="270" height="30" as="geometry" />
        </mxCell>
        <mxCell id="mxgCRNIYhX8iZWbbocOg-10" value="" style="edgeStyle=orthogonalEdgeStyle;rounded=0;orthogonalLoop=1;jettySize=auto;html=1;fontSize=17;entryX=0;entryY=0.5;entryDx=0;entryDy=0;" edge="1" parent="mxgCRNIYhX8iZWbbocOg-1" source="mxgCRNIYhX8iZWbbocOg-7" target="mxgCRNIYhX8iZWbbocOg-8">
          <mxGeometry relative="1" as="geometry">
            <mxPoint x="180" y="325" as="targetPoint" />
          </mxGeometry>
        </mxCell>
        <mxCell id="mxgCRNIYhX8iZWbbocOg-7" value="3 weeks prior to conference day" style="shape=mxgraph.bpmn.shape;html=1;verticalLabelPosition=bottom;labelBackgroundColor=#ffffff;verticalAlign=top;align=center;perimeter=ellipsePerimeter;outlineConnect=0;outline=standard;symbol=timer;fontSize=17;" vertex="1" parent="mxgCRNIYhX8iZWbbocOg-1">
          <mxGeometry x="50" y="300" width="50" height="50" as="geometry" />
        </mxCell>
        <mxCell id="mxgCRNIYhX8iZWbbocOg-12" value="" style="edgeStyle=orthogonalEdgeStyle;rounded=0;orthogonalLoop=1;jettySize=auto;html=1;fontSize=17;" edge="1" parent="mxgCRNIYhX8iZWbbocOg-1" source="mxgCRNIYhX8iZWbbocOg-8" target="mxgCRNIYhX8iZWbbocOg-11">
          <mxGeometry relative="1" as="geometry" />
        </mxCell>
        <mxCell id="mxgCRNIYhX8iZWbbocOg-8" value="Prepare" style="shape=ext;rounded=1;html=1;whiteSpace=wrap;fontSize=17;" vertex="1" parent="mxgCRNIYhX8iZWbbocOg-1">
          <mxGeometry x="220" y="285" width="120" height="80" as="geometry" />
        </mxCell>
        <mxCell id="mxgCRNIYhX8iZWbbocOg-14" style="edgeStyle=orthogonalEdgeStyle;rounded=0;orthogonalLoop=1;jettySize=auto;html=1;exitX=1;exitY=0.5;exitDx=0;exitDy=0;entryX=0;entryY=0.5;entryDx=0;entryDy=0;fontSize=17;" edge="1" parent="mxgCRNIYhX8iZWbbocOg-1" source="mxgCRNIYhX8iZWbbocOg-11" target="mxgCRNIYhX8iZWbbocOg-13">
          <mxGeometry relative="1" as="geometry" />
        </mxCell>
        <mxCell id="mxgCRNIYhX8iZWbbocOg-11" value="I week prior to conference day" style="shape=mxgraph.bpmn.shape;html=1;verticalLabelPosition=bottom;labelBackgroundColor=#ffffff;verticalAlign=top;align=center;perimeter=ellipsePerimeter;outlineConnect=0;outline=catching;symbol=timer;fontSize=17;" vertex="1" parent="mxgCRNIYhX8iZWbbocOg-1">
          <mxGeometry x="450" y="300" width="50" height="50" as="geometry" />
        </mxCell>
        <mxCell id="mxgCRNIYhX8iZWbbocOg-16" value="" style="edgeStyle=orthogonalEdgeStyle;rounded=0;orthogonalLoop=1;jettySize=auto;html=1;fontSize=17;" edge="1" parent="mxgCRNIYhX8iZWbbocOg-1" source="mxgCRNIYhX8iZWbbocOg-13" target="mxgCRNIYhX8iZWbbocOg-15">
          <mxGeometry relative="1" as="geometry" />
        </mxCell>
        <mxCell id="mxgCRNIYhX8iZWbbocOg-13" value="Contact Participants" style="shape=ext;rounded=1;html=1;whiteSpace=wrap;fontSize=17;" vertex="1" parent="mxgCRNIYhX8iZWbbocOg-1">
          <mxGeometry x="650" y="285" width="120" height="80" as="geometry" />
        </mxCell>
        <mxCell id="mxgCRNIYhX8iZWbbocOg-18" value="" style="edgeStyle=orthogonalEdgeStyle;rounded=0;orthogonalLoop=1;jettySize=auto;html=1;fontSize=17;" edge="1" parent="mxgCRNIYhX8iZWbbocOg-1" source="mxgCRNIYhX8iZWbbocOg-15" target="mxgCRNIYhX8iZWbbocOg-17">
          <mxGeometry relative="1" as="geometry" />
        </mxCell>
        <mxCell id="mxgCRNIYhX8iZWbbocOg-15" value="Conference Day" style="shape=mxgraph.bpmn.shape;html=1;verticalLabelPosition=bottom;labelBackgroundColor=#ffffff;verticalAlign=top;align=center;perimeter=ellipsePerimeter;outlineConnect=0;outline=catching;symbol=timer;fontSize=17;" vertex="1" parent="mxgCRNIYhX8iZWbbocOg-1">
          <mxGeometry x="880" y="300" width="50" height="50" as="geometry" />
        </mxCell>
        <mxCell id="mxgCRNIYhX8iZWbbocOg-20" value="" style="edgeStyle=orthogonalEdgeStyle;rounded=0;orthogonalLoop=1;jettySize=auto;html=1;fontSize=17;" edge="1" parent="mxgCRNIYhX8iZWbbocOg-1" source="mxgCRNIYhX8iZWbbocOg-17" target="mxgCRNIYhX8iZWbbocOg-19">
          <mxGeometry relative="1" as="geometry" />
        </mxCell>
        <mxCell id="mxgCRNIYhX8iZWbbocOg-17" value="Hold Conference" style="shape=ext;rounded=1;html=1;whiteSpace=wrap;fontSize=17;" vertex="1" parent="mxgCRNIYhX8iZWbbocOg-1">
          <mxGeometry x="1030" y="285" width="120" height="80" as="geometry" />
        </mxCell>
        <mxCell id="mxgCRNIYhX8iZWbbocOg-19" value="Conference Held" style="shape=mxgraph.bpmn.shape;html=1;verticalLabelPosition=bottom;labelBackgroundColor=#ffffff;verticalAlign=top;align=center;perimeter=ellipsePerimeter;outlineConnect=0;outline=end;symbol=general;fontSize=17;" vertex="1" parent="mxgCRNIYhX8iZWbbocOg-1">
          <mxGeometry x="1220" y="300" width="50" height="50" as="geometry" />
        </mxCell>
        <mxCell id="mxgCRNIYhX8iZWbbocOg-21" value="7am" style="text;html=1;align=center;verticalAlign=middle;resizable=0;points=[];autosize=1;fontSize=17;" vertex="1" parent="mxgCRNIYhX8iZWbbocOg-1">
          <mxGeometry x="210" y="210" width="50" height="30" as="geometry" />
        </mxCell>
      </root>
    </mxGraphModel>
  </diagram>
  <diagram id="eEifqJnamfjFeHC_E7JB" name="Event-Driven Gateway">
    <mxGraphModel dx="390" dy="520" grid="1" gridSize="10" guides="1" tooltips="1" connect="1" arrows="1" fold="1" page="1" pageScale="1" pageWidth="1654" pageHeight="1169" math="0" shadow="0">
      <root>
        <mxCell id="QeU2lEiAdPUL_MTzACor-0" />
        <mxCell id="QeU2lEiAdPUL_MTzACor-1" parent="QeU2lEiAdPUL_MTzACor-0" />
        <mxCell id="QeU2lEiAdPUL_MTzACor-5" style="edgeStyle=orthogonalEdgeStyle;rounded=0;orthogonalLoop=1;jettySize=auto;html=1;exitX=0.5;exitY=0;exitDx=0;exitDy=0;entryX=0;entryY=0.75;entryDx=0;entryDy=0;fontSize=17;" edge="1" parent="QeU2lEiAdPUL_MTzACor-1" source="QeU2lEiAdPUL_MTzACor-2" target="QeU2lEiAdPUL_MTzACor-3">
          <mxGeometry relative="1" as="geometry" />
        </mxCell>
        <mxCell id="QeU2lEiAdPUL_MTzACor-8" value="Green" style="edgeLabel;html=1;align=center;verticalAlign=middle;resizable=0;points=[];fontSize=17;" vertex="1" connectable="0" parent="QeU2lEiAdPUL_MTzACor-5">
          <mxGeometry x="0.424" y="-1" relative="1" as="geometry">
            <mxPoint as="offset" />
          </mxGeometry>
        </mxCell>
        <mxCell id="QeU2lEiAdPUL_MTzACor-6" style="edgeStyle=orthogonalEdgeStyle;rounded=0;orthogonalLoop=1;jettySize=auto;html=1;exitX=0.5;exitY=1;exitDx=0;exitDy=0;entryX=0.008;entryY=0.425;entryDx=0;entryDy=0;entryPerimeter=0;fontSize=17;" edge="1" parent="QeU2lEiAdPUL_MTzACor-1" source="QeU2lEiAdPUL_MTzACor-2" target="QeU2lEiAdPUL_MTzACor-4">
          <mxGeometry relative="1" as="geometry" />
        </mxCell>
        <mxCell id="QeU2lEiAdPUL_MTzACor-7" value="Red" style="edgeLabel;html=1;align=center;verticalAlign=middle;resizable=0;points=[];fontSize=17;" vertex="1" connectable="0" parent="QeU2lEiAdPUL_MTzACor-6">
          <mxGeometry x="0.667" y="1" relative="1" as="geometry">
            <mxPoint as="offset" />
          </mxGeometry>
        </mxCell>
        <mxCell id="QeU2lEiAdPUL_MTzACor-2" value="Which Color?" style="shape=mxgraph.bpmn.shape;html=1;verticalLabelPosition=bottom;labelBackgroundColor=#ffffff;verticalAlign=top;align=center;perimeter=rhombusPerimeter;background=gateway;outlineConnect=0;outline=none;symbol=exclusiveGw;fontSize=17;" vertex="1" parent="QeU2lEiAdPUL_MTzACor-1">
          <mxGeometry x="140" y="120" width="50" height="50" as="geometry" />
        </mxCell>
        <mxCell id="QeU2lEiAdPUL_MTzACor-3" value="Task" style="shape=ext;rounded=1;html=1;whiteSpace=wrap;fontSize=17;" vertex="1" parent="QeU2lEiAdPUL_MTzACor-1">
          <mxGeometry x="270" y="40" width="120" height="80" as="geometry" />
        </mxCell>
        <mxCell id="QeU2lEiAdPUL_MTzACor-4" value="Task" style="shape=ext;rounded=1;html=1;whiteSpace=wrap;fontSize=17;" vertex="1" parent="QeU2lEiAdPUL_MTzACor-1">
          <mxGeometry x="270" y="210" width="120" height="80" as="geometry" />
        </mxCell>
        <mxCell id="QeU2lEiAdPUL_MTzACor-9" value="" style="endArrow=block;endFill=1;endSize=6;html=1;fontSize=17;" edge="1" parent="QeU2lEiAdPUL_MTzACor-1">
          <mxGeometry width="100" relative="1" as="geometry">
            <mxPoint x="40" y="144.5" as="sourcePoint" />
            <mxPoint x="140" y="144.5" as="targetPoint" />
          </mxGeometry>
        </mxCell>
        <mxCell id="QeU2lEiAdPUL_MTzACor-10" value="Depending on the outcome, Following by different event" style="shape=mxgraph.bpmn.shape;html=1;verticalLabelPosition=bottom;labelBackgroundColor=#ffffff;verticalAlign=top;align=center;perimeter=rhombusPerimeter;background=gateway;outlineConnect=0;outline=catching;symbol=multiple;fontSize=17;" vertex="1" parent="QeU2lEiAdPUL_MTzACor-1">
          <mxGeometry x="210" y="350" width="50" height="50" as="geometry" />
        </mxCell>
        <mxCell id="QeU2lEiAdPUL_MTzACor-11" value="Event Driven Gateway" style="text;html=1;align=center;verticalAlign=middle;resizable=0;points=[];autosize=1;fontSize=17;" vertex="1" parent="QeU2lEiAdPUL_MTzACor-1">
          <mxGeometry x="145" y="320" width="180" height="30" as="geometry" />
        </mxCell>
      </root>
    </mxGraphModel>
  </diagram>
  <diagram id="GQECI2PgxfBwAdUg-Lrx" name="Matching Choices">
    <mxGraphModel dx="390" dy="520" grid="1" gridSize="10" guides="1" tooltips="1" connect="1" arrows="1" fold="1" page="1" pageScale="1" pageWidth="1654" pageHeight="1169" math="0" shadow="0">
      <root>
        <mxCell id="VML7cbIzM-KfiChJGVg_-0" />
        <mxCell id="VML7cbIzM-KfiChJGVg_-1" parent="VML7cbIzM-KfiChJGVg_-0" />
        <mxCell id="VML7cbIzM-KfiChJGVg_-2" value="2 Corresponding pools&lt;br style=&quot;font-size: 20px&quot;&gt;1 XOR&lt;br style=&quot;font-size: 20px&quot;&gt;1 Event Driven Split" style="text;html=1;align=center;verticalAlign=middle;resizable=0;points=[];autosize=1;fontSize=20;fillColor=#ffe6cc;strokeColor=#d79b00;" vertex="1" parent="VML7cbIzM-KfiChJGVg_-1">
          <mxGeometry x="5" y="50" width="220" height="80" as="geometry" />
        </mxCell>
      </root>
    </mxGraphModel>
  </diagram>
</mxfile>
